<svg xmlns="http://www.w3.org/2000/svg" viewBox="0 0 55 55" fill="#ffffff">
  <path d="M55 27.5C55 12.34 42.66 0 27.5 0S0 12.34 0 27.5c0 8 3.44 15.23 8.93 20.26l-.03.02.9.75c.05.05.1.1.17.14.47.4.97.77 1.47 1.13l.5.35c.52.36 1.07.7 1.63 1.04l.36.2c.62.35 1.24.68 1.9 1 .03 0 .08.03.13.05 2.1.97 4.32 1.68 6.65 2.1l.2.04c.72.1 1.45.2 2.2.28.08 0 .17 0 .26.02.74.06 1.48.1 2.24.1.75 0 1.5-.04 2.22-.1.1 0 .2 0 .28-.02.74-.07 1.46-.16 2.18-.3.06 0 .12 0 .2-.02 2.28-.4 4.48-1.1 6.54-2.06l.23-.1c.62-.3 1.22-.6 1.8-.93l.45-.26c.54-.3 1.07-.64 1.58-1 .2-.1.37-.25.55-.38.44-.3.87-.64 1.3-.98.08-.08.18-.14.28-.22l.92-.76-.03-.03c5.52-5.03 9-12.28 9-20.33zm-53 0C2 13.44 13.44 2 27.5 2S53 13.44 53 27.5c0 7.58-3.33 14.4-8.6 19.06-.28-.2-.58-.38-.88-.53l-8.47-4.24c-.76-.4-1.23-1.15-1.23-2v-2.96c.2-.24.4-.5.62-.8 1.1-1.56 1.97-3.28 2.6-5.14 1.28-.6 2.1-1.86 2.1-3.3v-3.53c0-.87-.32-1.7-.9-2.37v-4.67c.06-.52.25-3.44-1.87-5.86C34.52 9.07 31.54 8 27.5 8s-7.02 1.06-8.87 3.17c-2.12 2.4-1.93 5.34-1.88 5.86v4.67c-.57.66-.9 1.5-.9 2.37v3.54c0 1.1.5 2.14 1.35 2.83.8 3.18 2.48 5.58 3.1 6.4v2.9c0 .8-.45 1.55-1.17 1.95l-7.9 4.3c-.26.15-.5.3-.76.48C5.27 41.8 2 35.02 2 27.5zm40.46 20.63c-.35.26-.7.5-1.07.74-.17.1-.34.2-.5.32-.48.28-.96.56-1.45.82l-.33.16c-1.12.58-2.3 1.08-3.48 1.48-.05 0-.1.03-.13.04-.62.2-1.25.4-1.9.56-.65.16-1.3.3-1.96.4h-.06c-.62.1-1.25.18-1.87.24-.1 0-.22 0-.33.02-.62.05-1.24.08-1.87.08-.63 0-1.27-.03-1.9-.08-.1 0-.2 0-.32-.02-.64-.06-1.27-.13-1.9-.24h-.07c-1.32-.23-2.62-.56-3.9-.98l-.1-.04c-.63-.22-1.25-.45-1.87-.7v-.02c-.6-.25-1.15-.53-1.7-.82-.1-.03-.16-.07-.23-.1-.5-.28-1-.58-1.5-.9l-.44-.26c-.45-.3-.9-.6-1.34-.94l-.13-.1.08-.06 7.9-4.3c1.37-.75 2.22-2.17 2.22-3.72v-3.6l-.24-.28c-.02-.03-2.18-2.66-3-6.22l-.1-.4-.33-.22c-.48-.3-.77-.83-.77-1.4v-3.53c0-.47.2-.9.56-1.23l.33-.3V16.86c0-.03-.3-2.43 1.4-4.36 1.43-1.66 3.9-2.5 7.35-2.5 3.43 0 5.9.83 7.35 2.47 1.7 1.9 1.4 4.36 1.4 4.38v5.7l.33.3c.36.32.56.75.56 1.22v3.54c0 .73-.5 1.37-1.18 1.6l-.5.14-.16.5c-.6 1.83-1.43 3.52-2.5 5.03-.26.37-.5.7-.73.95l-.25.28v3.7c0 1.6.9 3.06 2.34 3.78l8.46 4.23.16.1-.32.23z"/>
</svg>