<svg xmlns="http://www.w3.org/2000/svg" viewBox="0 0 59.2 59.2" fill="#ffffff">
  <path d="M51.06 21.56c-11.9-11.9-31.23-11.9-43.12 0L0 29.5l8.14 8.14c5.94 5.94 13.75 8.92 21.56 8.92s15.6-2.98 21.56-8.92l7.94-7.94-8.14-8.14zm-1.22 14.67c-11.1 11.1-29.18 11.1-40.3 0l-6.7-6.73 6.5-6.53c11.12-11.1 29.2-11.1 40.3 0l6.73 6.73-6.52 6.53z"/>
  <path d="M28.57 21.57c-3.86 0-7 3.14-7 7 0 .55.45 1 1 1s1-.45 1-1c0-2.76 2.24-5 5-5 .55 0 1-.45 1-1s-.45-1-1-1z"/>
  <path d="M29.57 16.57c-7.17 0-13 5.83-13 13s5.83 13 13 13 13-5.83 13-13-5.83-13-13-13zm0 24c-6.06 0-11-4.93-11-11s4.94-11 11-11 11 4.93 11 11-4.93 11-11 11z"/>
</svg>