<svg xmlns="http://www.w3.org/2000/svg" viewBox="0 0 512 512">
  <path d="M488.73 0H302.54a23.27 23.27 0 0 0 0 46.55h130L193 286.09A23.27 23.27 0 1 0 225.9 319L465.45 79.46v130a23.27 23.27 0 0 0 46.55 0V23.27A23.27 23.27 0 0 0 488.73 0z" fill="#ffffff"/>
  <path d="M395.64 232.73A23.27 23.27 0 0 0 372.36 256v209.46H46.55V139.64H256a23.27 23.27 0 0 0 0-46.55H23.27A23.27 23.27 0 0 0 0 116.36v372.37A23.27 23.27 0 0 0 23.27 512h372.37a23.27 23.27 0 0 0 23.27-23.27V256a23.27 23.27 0 0 0-23.27-23.27z" fill="#ffffff"/>
</svg>