<svg xmlns="http://www.w3.org/2000/svg" viewBox="0 0 52.974 52.974" fill="#ffffff">
  <path d="M49.47 3.5c-4.68-4.67-12.3-4.67-16.97 0l-9.2 9.2c-.4.4-.4 1.03 0 1.42s1.03.4 1.42 0l9.2-9.2c1.87-1.88 4.38-2.9 7.06-2.9 2.68 0 5.2 1.02 7.07 2.9s2.92 4.4 2.92 7.08c0 2.68-1.04 5.2-2.92 7.07L36.03 31.1c-3.9 3.9-10.24 3.9-14.14 0-.4-.4-1.03-.4-1.42 0s-.4 1 0 1.4c2.34 2.34 5.4 3.5 8.48 3.5s6.15-1.16 8.5-3.5l12-12.02c2.26-2.26 3.5-5.27 3.5-8.48 0-3.22-1.23-6.23-3.5-8.5z"/>
  <path d="M26.84 40.28l-7.78 7.78c-1.88 1.88-4.4 2.9-7.07 2.9-2.7 0-5.2-1.02-7.08-2.9-3.9-3.9-3.9-10.25 0-14.14l11.3-11.32c3.9-3.9 10.26-3.9 14.16 0 .4.4 1.02.4 1.4 0s.4-1.02 0-1.4c-4.67-4.7-12.28-4.7-16.96 0L3.5 32.5C1.25 34.76 0 37.77 0 41c0 3.2 1.25 6.2 3.5 8.47s5.28 3.5 8.5 3.5c3.2 0 6.22-1.24 8.47-3.5l7.78-7.78c.4-.4.4-1.03 0-1.42s-1.02-.4-1.4 0z"/>
</svg>