<svg xmlns="http://www.w3.org/2000/svg" viewBox="0 0 53.011 53.011" fill="#ffffff">
  <path d="M52.96 21.3c-.06-.33-.3-.6-.6-.73-8.58-3.42-16.18-.67-18.37.3L19.1 8.2c.53-4.57-1.93-7.7-2.04-7.83-.18-.22-.44-.35-.72-.37-.3 0-.57.1-.77.3L.32 15.54c-.2.2-.3.47-.3.76.03.3.16.56.4.74 2.76 2.2 6.33 2.16 7.7 2.05l12.73 14.94c-.87 2.24-3.52 10.28-.3 18.34.12.32.4.54.72.6.07.03.14.03.2.03.27 0 .52-.1.7-.28l14.58-14.57 13.57 13.57c.2.2.45.3.7.3s.52-.1.72-.3c.4-.4.4-1.02 0-1.4L38.17 36.73 52.69 22.2c.23-.23.33-.57.26-.9zM35.3 36.76L21.9 50.18c-2.45-8 .98-15.83 1.02-15.9.16-.36.1-.77-.15-1.07L9.3 17.4c-.18-.23-.46-.36-.75-.36H8.4c-.04.02-3.18.48-5.8-.94L16.1 2.6c.6 1.15 1.4 3.26.96 5.84-.06.35.07.7.34.93L33.2 22.8c.3.26.73.3 1.1.13.07-.04 7.37-3.7 15.86-1.02L35.3 36.77z"/>
</svg>