<svg xmlns="http://www.w3.org/2000/svg" viewBox="0 0 34.06 34.06">
  <path d="M17.03 32.56c-6.63 0-12.54-4.2-14.7-10.48-.15-.46.1-.97.56-1.13.45-.16.96.1 1.12.55 1.9 5.55 7.13 9.28 13 9.28 7.6 0 13.76-6.17 13.76-13.75 0-.5.4-.9.9-.9.48 0 .88.4.88.9 0 8.56-6.97 15.53-15.53 15.53zM2.4 17.92c-.5 0-.9-.4-.9-.9C1.5 8.48 8.47 1.5 17.03 1.5c6.63 0 12.53 4.2 14.7 10.47.15.47-.1.97-.56 1.13-.47.16-.97-.08-1.13-.55-1.9-5.55-7.14-9.28-13-9.28-7.6 0-13.77 6.18-13.77 13.76 0 .5-.4.9-.88.9z" fill="#FFF"/>
  <path d="M30.84 13.33c-.1 0-.18 0-.26-.04l-6.17-1.94c-.45-.15-.7-.64-.57-1.1.15-.48.65-.74 1.1-.6l5.4 1.7 2-5.07c.2-.47.7-.7 1.17-.5.45.17.67.7.5 1.14l-2.33 5.83c-.14.35-.47.56-.83.56zM.9 28.33c-.12 0-.23-.02-.34-.06-.46-.2-.68-.7-.5-1.16L2.4 21.3c.16-.43.64-.65 1.08-.5l6.16 1.92c.47.14.73.64.58 1.1-.14.48-.64.74-1.1.6l-5.38-1.7-2.03 5.07c-.13.35-.46.56-.8.56z" fill="#FFF"/>
</svg>