<svg xmlns="http://www.w3.org/2000/svg" viewBox="0 0 24 24"><path fill="#7442F7" d="M3 2H1c-.6 0-1 .4-1 1v2c0 .6.4 1 1 1h2c.6 0 1-.4 1-1V3c0-.6-.4-1-1-1zM3 10H1c-.6 0-1 .4-1 1v2c0 .6.4 1 1 1h2c.6 0 1-.4 1-1v-2c0-.6-.4-1-1-1zM3 18H1c-.6 0-1 .4-1 1v2c0 .6.4 1 1 1h2c.6 0 1-.4 1-1v-2c0-.6-.4-1-1-1zM23 2H9c-.6 0-1 .4-1 1v2c0 .6.4 1 1 1h14c.6 0 1-.4 1-1V3c0-.6-.4-1-1-1zM23 10H9c-.6 0-1 .4-1 1v2c0 .6.4 1 1 1h14c.6 0 1-.4 1-1v-2c0-.6-.4-1-1-1zM23 18H9c-.6 0-1 .4-1 1v2c0 .6.4 1 1 1h14c.6 0 1-.4 1-1v-2c0-.6-.4-1-1-1z"/></svg>